<mxfile host="app.diagrams.net" modified="2021-04-02T14:38:09.317Z" agent="5.0 (Windows NT 10.0; Win64; x64) AppleWebKit/537.36 (KHTML, like Gecko) Chrome/89.0.4389.90 Safari/537.36 Edg/89.0.774.63" etag="UuS1iWSi7bSS-tuukqfv" version="14.5.3" type="github">
  <diagram id="7hMPqtJbOyTKomPswE_N" name="第 1 页">
    <mxGraphModel dx="1038" dy="548" grid="0" gridSize="10" guides="1" tooltips="1" connect="1" arrows="1" fold="1" page="0" pageScale="1" pageWidth="827" pageHeight="1169" math="0" shadow="0">
      <root>
        <mxCell id="0" />
        <mxCell id="1" parent="0" />
        <mxCell id="H4dwa7F3W7cDL7WJD_So-1" value="" style="endArrow=none;dashed=1;html=1;strokeWidth=2;strokeColor=#CCCCCC;" edge="1" parent="1">
          <mxGeometry width="50" height="50" relative="1" as="geometry">
            <mxPoint x="261" y="851.60009765625" as="sourcePoint" />
            <mxPoint x="261" y="9" as="targetPoint" />
          </mxGeometry>
        </mxCell>
        <mxCell id="H4dwa7F3W7cDL7WJD_So-2" value="" style="endArrow=none;dashed=1;html=1;strokeWidth=2;strokeColor=#CCCCCC;" edge="1" parent="1">
          <mxGeometry width="50" height="50" relative="1" as="geometry">
            <mxPoint x="608" y="851.60009765625" as="sourcePoint" />
            <mxPoint x="608" y="9" as="targetPoint" />
          </mxGeometry>
        </mxCell>
      </root>
    </mxGraphModel>
  </diagram>
</mxfile>
